<svg xmlns="http://www.w3.org/2000/svg" viewBox="0 0 1143.42 565.65"><defs><style>.a,.b,.c{fill:#090c89;}.a,.b{stroke:#090c89;}.a,.b,.e,.f{stroke-miterlimit:10;}.a,.e{stroke-width:2px;}.b,.f{opacity:0.6;}.d{fill:#fff;}.e,.f,.g{fill:#ef4056;}.e,.f{stroke:#ef4056;}</style></defs><title>logo_text_white</title><line class="a" x1="219" y1="291.22" x2="289.71" y2="220.51"/><line class="a" x1="417" y1="291.22" x2="487.71" y2="220.51"/><line class="a" x1="488" y1="221.22" x2="488" y2="241.22"/><line class="a" x1="418" y1="489.22" x2="488.71" y2="418.51"/><polygon class="b" points="418 290.22 220 290.09 239 270.22 418 270.22 437 251.22 437 271.22 418 290.22"/><polygon class="b" points="436 471.22 418 489.22 418 291.22 488 220.22 488 239.22 436 291.22 436 471.22"/><rect class="c" x="218.5" y="290.72" width="199" height="199"/><path class="c" d="M815.5,551.63v198h-198v-198h198m1-1h-200v200h200v-200Z" transform="translate(-398.5 -260.41)"/><path class="d" d="M697.81,724.13V615.38H652.5V579.13H779.38v36.25H734.06V724.13Z" transform="translate(-398.5 -260.41)"/><line class="a" x1="437" y1="291.22" x2="507.71" y2="220.51"/><line class="a" x1="635" y1="291.22" x2="705.71" y2="220.51"/><line class="a" x1="706" y1="221.22" x2="706" y2="241.22"/><line class="a" x1="636" y1="489.22" x2="706.71" y2="418.51"/><polygon class="b" points="636 290.22 439 291.09 457 270.22 636 270.22 655 251.22 655 271.22 636 290.22"/><polygon class="b" points="654 471.22 636 489.22 636 291.22 706 220.22 706 239.22 654 291.22 654 471.22"/><rect class="c" x="436.5" y="290.72" width="199" height="199"/><path class="c" d="M1033.5,551.63v198h-198v-198h198m1-1h-200v200h200v-200Z" transform="translate(-398.5 -260.41)"/><path class="d" d="M873.5,724.13v-145H982.25l18.13,18.13v54.38l-18.12,18.13h-9.06l27.19,54.38H964.13l-36.25-72.5V633.5h36.25V615.38H909.75V724.13Z" transform="translate(-398.5 -260.41)"/><line class="a" x1="655" y1="291.22" x2="725.71" y2="220.51"/><line class="a" x1="853" y1="291.22" x2="923.71" y2="220.51"/><line class="a" x1="924" y1="221.22" x2="924" y2="241.22"/><line class="a" x1="854" y1="489.22" x2="924.71" y2="418.51"/><polygon class="b" points="854 290.22 655 291.09 675 270.22 854 270.22 904 220.22 924 220.22 854 290.22"/><polygon class="b" points="872 471.22 854 489.22 854 291.22 924 220.22 924 239.22 872 291.22 872 471.22"/><rect class="c" x="654.5" y="290.72" width="199" height="199"/><path class="c" d="M1251.5,551.63v198h-198v-198h198m1-1h-200v200h200v-200Z" transform="translate(-398.5 -260.41)"/><path class="d" d="M1132.5,724.13v-145h36.25v145Z" transform="translate(-398.5 -260.41)"/><line class="a" x1="904" y1="220.22" x2="925" y2="220.22"/><line class="a" x1="873" y1="291.22" x2="943.71" y2="220.51"/><line class="a" x1="1071" y1="291.22" x2="1141.71" y2="220.51"/><line class="a" x1="943" y1="220.22" x2="1143" y2="220.22"/><line class="a" x1="1142" y1="219.22" x2="1142" y2="418.22"/><line class="a" x1="1072" y1="489.22" x2="1142.71" y2="418.51"/><polygon class="b" points="1072 290.22 873 291.09 944 220.22 1142 220.22 1072 290.22"/><polygon class="b" points="1142 419.22 1072 489.09 1072 291.22 1142 220.22 1142 419.22"/><rect class="c" x="872.5" y="290.72" width="199" height="199"/><path class="c" d="M1469.5,551.63v198h-198v-198h198m1-1h-200v200h200v-200Z" transform="translate(-398.5 -260.41)"/><path class="d" d="M1301.5,724.13V687.88h90.63V669.75h-72.5l-18.12-18.12V597.25l18.13-18.12H1446.5l-18.12,36.25h-90.62V633.5h90.63v54.38l-36.25,36.25Z" transform="translate(-398.5 -260.41)"/><path class="d" d="M628.49,819h27.63v6.29H620.77V767h7.73Z" transform="translate(-398.5 -260.41)"/><path class="d" d="M707.13,798a36.06,36.06,0,0,1-2.88,15,21.83,21.83,0,0,1-8.17,9.75A22.54,22.54,0,0,1,663.27,813a34.59,34.59,0,0,1-3-14.51v-4.2a35.63,35.63,0,0,1,2.92-14.85,21.62,21.62,0,0,1,20.5-13.29A22.6,22.6,0,0,1,696,769.54a21.8,21.8,0,0,1,8.23,9.81,36.23,36.23,0,0,1,2.88,15Zm-7.65-3.76q0-10.37-4.16-15.92a13.74,13.74,0,0,0-11.65-5.55,13.59,13.59,0,0,0-11.47,5.55q-4.18,5.55-4.3,15.39V798q0,10.05,4.22,15.8a13.64,13.64,0,0,0,11.63,5.75q7.45,0,11.53-5.42t4.2-15.56Z" transform="translate(-398.5 -260.41)"/><path class="d" d="M750,810H725.59l-5.49,15.25h-7.93L734.44,767h6.73l22.3,58.3h-7.89Zm-22.1-6.29h19.82l-9.93-27.27Z" transform="translate(-398.5 -260.41)"/><path class="d" d="M771.31,825.25V767h16.46a26.49,26.49,0,0,1,13.45,3.36,22.75,22.75,0,0,1,9,9.57,31.15,31.15,0,0,1,3.22,14.25v3.72a31.25,31.25,0,0,1-3.18,14.45,22.39,22.39,0,0,1-9.09,9.53,28.17,28.17,0,0,1-13.75,3.4Zm7.69-52V819h8.09q8.89,0,13.83-5.53t4.94-15.75v-3.41q0-9.94-4.66-15.45T788,773.24Z" transform="translate(-398.5 -260.41)"/><path class="d" d="M833.33,825.25h-7.69V767h7.69Z" transform="translate(-398.5 -260.41)"/><path class="d" d="M892.19,825.25h-7.73l-29.35-44.92v44.92h-7.73V767h7.73l29.43,45.12V767h7.65Z" transform="translate(-398.5 -260.41)"/><path class="d" d="M948.89,817.6a17.76,17.76,0,0,1-8.27,6.35,33.42,33.42,0,0,1-12.35,2.1,24,24,0,0,1-12.65-3.34,22.26,22.26,0,0,1-8.55-9.51A32.83,32.83,0,0,1,904,798.9v-5.08q0-13.17,6.15-20.42t17.28-7.25q9.13,0,14.69,4.66T948.89,784H941.2q-2.16-11.61-13.77-11.61-7.73,0-11.71,5.43t-4,15.73v4.77q0,9.82,4.48,15.61a14.53,14.53,0,0,0,12.13,5.79,26.82,26.82,0,0,0,7.57-1,11.71,11.71,0,0,0,5.37-3.24V802.51H927.75v-6.29h21.14Z" transform="translate(-398.5 -260.41)"/><path class="d" d="M1024.88,806.75q-1.08,9.25-6.83,14.27t-15.28,5q-10.33,0-16.56-7.41T980,798.82v-5.61a33.2,33.2,0,0,1,2.9-14.29,21.68,21.68,0,0,1,8.23-9.47,22.92,22.92,0,0,1,12.33-3.3q9.29,0,14.89,5.19t6.53,14.35h-7.73q-1-7-4.34-10.12t-9.35-3.13a13.75,13.75,0,0,0-11.55,5.45q-4.18,5.45-4.18,15.51V799q0,9.5,4,15.11a12.81,12.81,0,0,0,11.09,5.61q6.41,0,9.83-2.9t4.54-10.11Z" transform="translate(-398.5 -260.41)"/><path class="d" d="M1080.21,798a36.06,36.06,0,0,1-2.88,15,21.83,21.83,0,0,1-8.17,9.75,22.54,22.54,0,0,1-32.81-9.67,34.57,34.57,0,0,1-3-14.51v-4.2a35.62,35.62,0,0,1,2.92-14.85,21.62,21.62,0,0,1,20.5-13.29,22.61,22.61,0,0,1,12.35,3.38,21.81,21.81,0,0,1,8.23,9.81,36.23,36.23,0,0,1,2.88,15Zm-7.65-3.76q0-10.37-4.16-15.92a13.74,13.74,0,0,0-11.65-5.55,13.59,13.59,0,0,0-11.47,5.55q-4.18,5.55-4.3,15.39V798q0,10.05,4.22,15.8a13.65,13.65,0,0,0,11.63,5.75q7.45,0,11.53-5.42t4.2-15.56Z" transform="translate(-398.5 -260.41)"/><path class="d" d="M1101.68,767l19.06,47.57L1139.79,767h10v58.3h-7.69v-22.7l.72-24.5-19.14,47.21h-5.89l-19.1-47.09.76,24.38v22.7h-7.69V767Z" transform="translate(-398.5 -260.41)"/><path class="d" d="M1171,802.43v22.82h-7.69V767h21.5q9.57,0,15,4.88t5.43,12.93q0,8.49-5.3,13.07t-15.2,4.58Zm0-6.29h13.81q6.17,0,9.45-2.91t3.28-8.4a11,11,0,0,0-3.28-8.34q-3.28-3.13-9-3.25H1171Z" transform="translate(-398.5 -260.41)"/><path class="d" d="M1222.79,819h27.63v6.29h-35.35V767h7.73Z" transform="translate(-398.5 -260.41)"/><path class="d" d="M1292.14,798.3h-25.26V819h29.35v6.29h-37V767h36.64v6.29h-28.95V792h25.26Z" transform="translate(-398.5 -260.41)"/><path class="d" d="M1346.88,773.24h-18.74v52h-7.65v-52h-18.7V767h45.08Z" transform="translate(-398.5 -260.41)"/><path class="d" d="M1388.48,798.3h-25.26V819h29.35v6.29h-37V767h36.64v6.29h-28.95V792h25.26Z" transform="translate(-398.5 -260.41)"/><path class="d" d="M1402.13,825.25V767h16.46a26.49,26.49,0,0,1,13.45,3.36,22.76,22.76,0,0,1,9,9.57,31.17,31.17,0,0,1,3.22,14.25v3.72a31.24,31.24,0,0,1-3.18,14.45,22.38,22.38,0,0,1-9.09,9.53,28.17,28.17,0,0,1-13.75,3.4Zm7.69-52V819h8.09q8.89,0,13.83-5.53t4.95-15.75v-3.41q0-9.94-4.66-15.45t-13.23-5.59Z" transform="translate(-398.5 -260.41)"/><path class="d" d="M1455.54,821.49a4.41,4.41,0,0,1,1.1-3.05,4.15,4.15,0,0,1,3.26-1.23,4.21,4.21,0,0,1,3.28,1.23,4.37,4.37,0,0,1,1.12,3.05,4.22,4.22,0,0,1-1.12,3,4.29,4.29,0,0,1-3.28,1.19,4,4,0,0,1-4.36-4.2Zm7.49-12.76h-6.69l-.52-41.77h7.77Z" transform="translate(-398.5 -260.41)"/><line class="e" x1="1" y1="72.22" x2="71.71" y2="1.51"/><line class="e" x1="199" y1="72.22" x2="269.71" y2="1.51"/><line class="e" x1="71" y1="1.22" x2="271" y2="1.22"/><line class="e" x1="270" y1="2.22" x2="270" y2="22.22"/><line class="e" x1="200" y1="270.22" x2="270.71" y2="199.51"/><polygon class="f" points="200 71.22 3 71.09 72 1.22 270 1.22 200 71.22"/><polygon class="f" points="218 252.22 200 270.22 200 72.22 270 1.22 270 20.22 218 72.22 218 252.22"/><rect class="g" x="0.5" y="71.72" width="199" height="199"/><path class="g" d="M597.5,332.63v198h-198v-198h198m1-1h-200v200h200v-200Z" transform="translate(-398.5 -260.41)"/><path class="d" d="M437.5,505.13v-145H546.25l18.13,18.13v54.38l-18.12,18.13h-72.5v54.38Zm90.63-90.62V396.38H473.75V414.5Z" transform="translate(-398.5 -260.41)"/><line class="e" x1="219" y1="72.22" x2="289.71" y2="1.51"/><line class="e" x1="417" y1="72.22" x2="487.71" y2="1.51"/><line class="e" x1="289" y1="1.22" x2="489" y2="1.22"/><line class="e" x1="488" y1="0.22" x2="488" y2="20.22"/><line class="e" x1="418" y1="270.22" x2="488.71" y2="199.51"/><polygon class="f" points="418 71.22 219 72.09 290 1.22 488 1.22 418 71.22"/><polygon class="f" points="436 252.22 418 270.22 418 72.22 488 1.22 488 20.22 436 72.22 436 252.22"/><rect class="g" x="218.5" y="71.72" width="199" height="199"/><path class="g" d="M815.5,332.63v198h-198v-198h198m1-1h-200v200h200v-200Z" transform="translate(-398.5 -260.41)"/><path class="d" d="M626.44,505.13l72.5-145h36.25l72.5,145H762.38L753.31,487H689.88L708,450.75h27.19L717.06,414.5l-45.31,90.63Z" transform="translate(-398.5 -260.41)"/><line class="e" x1="437" y1="72.22" x2="507.71" y2="1.51"/><line class="e" x1="635" y1="72.22" x2="705.71" y2="1.51"/><line class="e" x1="507" y1="1.22" x2="707" y2="1.22"/><line class="e" x1="706" y1="0.22" x2="706" y2="20.22"/><line class="e" x1="636" y1="270.22" x2="706.71" y2="199.51"/><polygon class="f" points="636 71.22 437 72.09 508 1.22 706 1.22 636 71.22"/><polygon class="f" points="654 252.22 636 270.22 636 72.22 706 1.22 706 20.22 654 72.22 654 252.22"/><rect class="g" x="436.5" y="71.72" width="199" height="199"/><path class="g" d="M1033.5,332.63v198h-198v-198h198m1-1h-200v200h200v-200Z" transform="translate(-398.5 -260.41)"/><path class="d" d="M890.63,505.13,872.5,487V378.25l18.13-18.12H999.38l-18.12,36.25h-72.5v72.5h90.63v36.25Z" transform="translate(-398.5 -260.41)"/><line class="e" x1="655" y1="72.22" x2="725.71" y2="1.51"/><line class="e" x1="853" y1="72.22" x2="923.71" y2="1.51"/><line class="e" x1="725" y1="1.22" x2="925" y2="1.22"/><line class="e" x1="924" y1="1.22" x2="924" y2="199.22"/><line class="e" x1="854" y1="270.22" x2="924.71" y2="199.51"/><polygon class="f" points="854 71.22 655 72.09 726 1.22 924 1.22 854 71.22"/><polygon class="f" points="924 200.22 854 270.09 854 72.22 924 1.22 924 200.22"/><rect class="g" x="654.5" y="71.72" width="199" height="199"/><path class="g" d="M1251.5,332.63v198h-198v-198h198m1-1h-200v200h200v-200Z" transform="translate(-398.5 -260.41)"/><path class="d" d="M1093.5,505.13v-145h36.25V414.5h18.13l27.19-54.37h36.25l-36.25,72.5,36.25,72.5h-36.25l-27.19-54.37h-18.12v54.38Z" transform="translate(-398.5 -260.41)"/></svg>